<svg width="40" height="25" viewBox="0 0 40 25" fill="none" xmlns="http://www.w3.org/2000/svg">
<path d="M25.4015 22.082H14.5859V2.64453H25.4015V22.082Z" fill="#FF5F00"/>
<path d="M15.2784 12.3608C15.2784 8.41786 17.1245 4.90556 19.9994 2.64209C17.8971 0.986935 15.2438 -0.000972748 12.3602 -0.000972748C5.5337 -0.000972748 0 5.53351 0 12.3608C0 19.1882 5.5337 24.7227 12.3602 24.7227C15.2438 24.7227 17.8971 23.7347 19.9994 22.0796C17.1245 19.8161 15.2784 16.3038 15.2784 12.3608Z" fill="#EB001B"/>
<path d="M39.9885 12.3608C39.9885 19.1882 34.4548 24.7227 27.6283 24.7227C24.7447 24.7227 22.0914 23.7347 19.9883 22.0796C22.864 19.8161 24.7101 16.3038 24.7101 12.3608C24.7101 8.41786 22.864 4.90556 19.9883 2.64209C22.0914 0.986935 24.7447 -0.000972748 27.6283 -0.000972748C34.4548 -0.000972748 39.9885 5.53351 39.9885 12.3608Z" fill="#F79E1B"/>
</svg>
